<svg width="17" height="17" viewBox="0 0 17 17" fill="none" xmlns="http://www.w3.org/2000/svg">
<path d="M14.4375 1.28125C15.007 1.28125 15.4688 1.74296 15.4688 2.3125V14.6875C15.4688 15.257 15.007 15.7188 14.4375 15.7188H2.0625C1.49296 15.7188 1.03125 15.257 1.03125 14.6875V2.3125C1.03125 1.74296 1.49296 1.28125 2.0625 1.28125H14.4375ZM2.0625 0.25C0.923413 0.25 0 1.17341 0 2.3125V14.6875C0 15.8266 0.923413 16.75 2.0625 16.75H14.4375C15.5766 16.75 16.5 15.8266 16.5 14.6875V2.3125C16.5 1.17341 15.5766 0.25 14.4375 0.25H2.0625Z" fill="#80939D"/>
<path d="M11 8.25C11 9.90685 9.65685 11.25 8 11.25C6.34315 11.25 5 9.90685 5 8.25C5 6.59315 6.34315 5.25 8 5.25C9.65685 5.25 11 6.59315 11 8.25Z" fill="#80939D"/>
</svg>
